<svg id="Layer_1" data-name="Layer 1" xmlns="http://www.w3.org/2000/svg" viewBox="0 0 2024 2024"><defs><style>.cls-1{fill:#fff;}</style></defs><title>logotipo-white</title><circle class="cls-1" cx="1683.47" cy="986.63" r="158.17"/><path class="cls-1" d="M1745.81,323.32a66.65,66.65,0,0,1-89.36,30,67.83,67.83,0,0,1-22.28-17.92,139.11,139.11,0,0,0-20.92-20.89,164.87,164.87,0,0,0-26.73-17.5c-19.58-10.35-42.38-17.77-66.6-22-24.4-4.23-50.42-5.36-76.94-4.42-16.49.58-33.18,1.95-50,3.78a69.66,69.66,0,0,0-45.92,65.76v832.74c0,31.77,21.18,59.58,53,66.19l2.65,1.33H1042.61l2.65-1.33c33.1-6.61,53-34.42,53-66.19V346.77l-332.3,893.64h-38.4l-317.74-891-.32-78.11H554.23a127.74,127.74,0,0,1,120.24,84.6l193.39,539,230.36-623.56h274.09c20.33-11.59,41.1-22.71,63-32.68C1460.78,227,1487.83,217,1517,210.29a309.43,309.43,0,0,1,92.83-7.15,272.45,272.45,0,0,1,49.2,8.42,262.65,262.65,0,0,1,49,18.5l7.83,3.9A66.66,66.66,0,0,1,1745.81,323.32Z"/><path class="cls-1" d="M392.77,1392A91.46,91.46,0,0,1,271,1270.24L335.45,1134a130.79,130.79,0,0,0,2.59-24.94V386.19c0-31.77-14.57-70.16-33.1-95.32a16.81,16.81,0,0,1-3.83-10.65,17.07,17.07,0,0,1,17.09-17.15h47.31l.33,78.11v767.87a127.77,127.77,0,0,0,.79,13.91l69.69,147.28A91.46,91.46,0,0,1,392.77,1392Z"/><path class="cls-1" d="M1689.66,1587.48c-39,0-84-6-134-21,26,70,81,109,156,109s141-40,179-99c-12,148-112,246-261,246-158,0-278-109-278-272s119-272,296-272c136,0,227,65,227,163C1874.66,1526.48,1808.66,1587.48,1689.66,1587.48Zm-59-288c-55,0-91,67-91,166,0,27,2,51,7,74C1751.66,1462.48,1716.66,1299.48,1630.66,1299.48Z"/></svg>