<svg id="Layer_1" data-name="Layer 1" xmlns="http://www.w3.org/2000/svg" xmlns:xlink="http://www.w3.org/1999/xlink" viewBox="0 0 2024 2024"><defs><style>.cls-1{fill:url(#linear-gradient);}.cls-2{fill:url(#linear-gradient-2);}.cls-3{fill:url(#linear-gradient-3);}.cls-4{fill:url(#linear-gradient-4);}</style><linearGradient id="linear-gradient" x1="1596.47" y1="1130.81" x2="1596.47" y2="814.46" gradientUnits="userSpaceOnUse"><stop offset="0.07" stop-color="#a03cc1"/><stop offset="0.57" stop-color="#04b262"/><stop offset="0.64" stop-color="#05af62"/><stop offset="0.7" stop-color="#0aa463"/><stop offset="0.76" stop-color="#129365"/><stop offset="0.82" stop-color="#1c7a67"/><stop offset="0.87" stop-color="#2a5a6b"/><stop offset="0.93" stop-color="#3b346e"/><stop offset="0.96" stop-color="#471871"/></linearGradient><linearGradient id="linear-gradient-2" x1="994.13" y1="1226.41" x2="994.13" y2="188.25" xlink:href="#linear-gradient"/><linearGradient id="linear-gradient-3" x1="266.69" y1="1386.84" x2="266.69" y2="249.07" xlink:href="#linear-gradient"/><linearGradient id="linear-gradient-4" x1="1534.16" y1="1808.48" x2="1534.16" y2="1264.48" xlink:href="#linear-gradient"/></defs><title>Estudio Mirai Logo</title><circle class="cls-1" cx="1596.47" cy="972.63" r="158.17"/><path class="cls-2" d="M1658.81,309.32a66.65,66.65,0,0,1-89.36,30,67.83,67.83,0,0,1-22.28-17.92,139.11,139.11,0,0,0-20.92-20.89,164.87,164.87,0,0,0-26.73-17.5c-19.58-10.35-42.38-17.77-66.6-22-24.4-4.23-50.42-5.36-76.94-4.42-16.49.58-33.18,1.95-50,3.78a69.66,69.66,0,0,0-45.92,65.76v832.74c0,31.77,21.18,59.58,53,66.19l2.65,1.33H955.61l2.65-1.33c33.1-6.61,53-34.42,53-66.19V332.77l-332.3,893.64h-38.4l-317.74-891-.32-78.11H467.23a127.74,127.74,0,0,1,120.24,84.6l193.39,539,230.36-623.56h274.09c20.33-11.59,41.1-22.71,63-32.68C1373.78,213,1400.83,203,1430,196.29a309.43,309.43,0,0,1,92.83-7.15,272.45,272.45,0,0,1,49.2,8.42,262.65,262.65,0,0,1,49,18.5l7.83,3.9A66.66,66.66,0,0,1,1658.81,309.32Z"/><path class="cls-3" d="M305.77,1378A91.46,91.46,0,0,1,184,1256.24L248.45,1120a130.79,130.79,0,0,0,2.59-24.94V372.19c0-31.77-14.57-70.16-33.1-95.32a16.81,16.81,0,0,1-3.83-10.65,17.07,17.07,0,0,1,17.09-17.15h47.31l.33,78.11v767.87a127.77,127.77,0,0,0,.79,13.91l69.69,147.28A91.46,91.46,0,0,1,305.77,1378Z"/><path class="cls-4" d="M1602.66,1573.48c-39,0-84-6-134-21,26,70,81,109,156,109s141-40,179-99c-12,148-112,246-261,246-158,0-278-109-278-272s119-272,296-272c136,0,227,65,227,163C1787.66,1512.48,1721.66,1573.48,1602.66,1573.48Zm-59-288c-55,0-91,67-91,166,0,27,2,51,7,74C1664.66,1448.48,1629.66,1285.48,1543.66,1285.48Z"/></svg>